<mxfile host="app.diagrams.net" modified="2023-10-20T15:03:33.422Z" agent="Mozilla/5.0 (Macintosh; Intel Mac OS X 10_15_7) AppleWebKit/537.36 (KHTML, like Gecko) Chrome/118.0.0.0 Safari/537.36" etag="5d6TX4pk8GnCmfX-VphZ" version="22.0.6" type="github">
  <diagram name="Page-1" id="_AXsdUAn82mSwxAkWFdp">
    <mxGraphModel dx="582" dy="712" grid="1" gridSize="10" guides="1" tooltips="1" connect="1" arrows="1" fold="1" page="1" pageScale="1" pageWidth="850" pageHeight="1100" math="0" shadow="0">
      <root>
        <mxCell id="0" />
        <mxCell id="1" parent="0" />
        <mxCell id="rAy8-Z3b183x5DeQ4CNt-1" value="" style="rounded=0;whiteSpace=wrap;html=1;" parent="1" vertex="1">
          <mxGeometry x="249.5" y="10" width="357" height="100" as="geometry" />
        </mxCell>
        <mxCell id="rAy8-Z3b183x5DeQ4CNt-2" value="&lt;font face=&quot;Times New Roman&quot; style=&quot;font-size: 14px;&quot;&gt;Monopoly the Board Game: But It&#39;s a Bloons-TD-Style Tower Defense Game Where Chess Pieces from Chess.com Fight Monkeys from Bloons Tower Defense 6 on a Monopoly-Inspired Board&lt;br&gt;&lt;br&gt;Members: Tyler Le, Juntian Deng, Dallin Soukup, Eddie Li&lt;/font&gt;" style="text;html=1;strokeColor=none;fillColor=none;align=center;verticalAlign=middle;whiteSpace=wrap;rounded=0;" parent="1" vertex="1">
          <mxGeometry x="250.25" y="20" width="355.5" height="80" as="geometry" />
        </mxCell>
        <mxCell id="rAy8-Z3b183x5DeQ4CNt-3" value="" style="ellipse;whiteSpace=wrap;html=1;" parent="1" vertex="1">
          <mxGeometry x="365" y="120" width="120" height="80" as="geometry" />
        </mxCell>
        <mxCell id="rAy8-Z3b183x5DeQ4CNt-6" style="edgeStyle=orthogonalEdgeStyle;rounded=0;orthogonalLoop=1;jettySize=auto;html=1;" parent="1" edge="1">
          <mxGeometry relative="1" as="geometry">
            <mxPoint x="427" y="280" as="targetPoint" />
            <mxPoint x="427" y="200" as="sourcePoint" />
          </mxGeometry>
        </mxCell>
        <mxCell id="rAy8-Z3b183x5DeQ4CNt-4" value="&lt;font face=&quot;Times New Roman&quot; style=&quot;font-size: 31px;&quot;&gt;Start&lt;/font&gt;" style="text;html=1;strokeColor=none;fillColor=none;align=center;verticalAlign=middle;whiteSpace=wrap;rounded=0;" parent="1" vertex="1">
          <mxGeometry x="364" y="125" width="125" height="70" as="geometry" />
        </mxCell>
        <mxCell id="rAy8-Z3b183x5DeQ4CNt-7" value="" style="rounded=0;whiteSpace=wrap;html=1;" parent="1" vertex="1">
          <mxGeometry x="336" y="280" width="181" height="60" as="geometry" />
        </mxCell>
        <mxCell id="rAy8-Z3b183x5DeQ4CNt-9" style="edgeStyle=orthogonalEdgeStyle;rounded=0;orthogonalLoop=1;jettySize=auto;html=1;" parent="1" source="rAy8-Z3b183x5DeQ4CNt-8" edge="1">
          <mxGeometry relative="1" as="geometry">
            <mxPoint x="350" y="440" as="targetPoint" />
          </mxGeometry>
        </mxCell>
        <mxCell id="rAy8-Z3b183x5DeQ4CNt-14" style="edgeStyle=orthogonalEdgeStyle;rounded=0;orthogonalLoop=1;jettySize=auto;html=1;" parent="1" source="rAy8-Z3b183x5DeQ4CNt-8" edge="1">
          <mxGeometry relative="1" as="geometry">
            <mxPoint x="510" y="440" as="targetPoint" />
          </mxGeometry>
        </mxCell>
        <mxCell id="rAy8-Z3b183x5DeQ4CNt-8" value="&lt;font style=&quot;font-size: 15px;&quot; face=&quot;Times New Roman&quot;&gt;Roll 2 dice, determines level of enemy strength&lt;/font&gt;" style="text;html=1;strokeColor=none;fillColor=none;align=center;verticalAlign=middle;whiteSpace=wrap;rounded=0;" parent="1" vertex="1">
          <mxGeometry x="336" y="280" width="184" height="60" as="geometry" />
        </mxCell>
        <mxCell id="rAy8-Z3b183x5DeQ4CNt-12" value="" style="rounded=0;whiteSpace=wrap;html=1;" parent="1" vertex="1">
          <mxGeometry x="241" y="440" width="181" height="60" as="geometry" />
        </mxCell>
        <mxCell id="rAy8-Z3b183x5DeQ4CNt-13" value="&lt;font face=&quot;Times New Roman&quot;&gt;&lt;span style=&quot;font-size: 15px;&quot;&gt;Summons enemies according to dice roll&lt;/span&gt;&lt;/font&gt;" style="text;html=1;strokeColor=none;fillColor=none;align=center;verticalAlign=middle;whiteSpace=wrap;rounded=0;" parent="1" vertex="1">
          <mxGeometry x="241" y="440" width="184" height="60" as="geometry" />
        </mxCell>
        <mxCell id="rAy8-Z3b183x5DeQ4CNt-16" value="" style="rounded=0;whiteSpace=wrap;html=1;" parent="1" vertex="1">
          <mxGeometry x="440" y="440" width="181" height="60" as="geometry" />
        </mxCell>
        <mxCell id="wMls8_6Rs4kCehVJykwK-1" value="" style="endArrow=classic;html=1;rounded=0;exitX=0.5;exitY=1;exitDx=0;exitDy=0;" parent="1" source="rAy8-Z3b183x5DeQ4CNt-13" edge="1">
          <mxGeometry width="50" height="50" relative="1" as="geometry">
            <mxPoint x="400" y="500" as="sourcePoint" />
            <mxPoint x="333" y="560" as="targetPoint" />
          </mxGeometry>
        </mxCell>
        <mxCell id="wMls8_6Rs4kCehVJykwK-2" value="" style="rounded=0;whiteSpace=wrap;html=1;" parent="1" vertex="1">
          <mxGeometry x="256.5" y="560" width="153" height="60" as="geometry" />
        </mxCell>
        <mxCell id="wMls8_6Rs4kCehVJykwK-12" style="edgeStyle=orthogonalEdgeStyle;rounded=0;orthogonalLoop=1;jettySize=auto;html=1;" parent="1" source="wMls8_6Rs4kCehVJykwK-4" edge="1">
          <mxGeometry relative="1" as="geometry">
            <mxPoint x="530.5" y="600" as="targetPoint" />
          </mxGeometry>
        </mxCell>
        <mxCell id="wMls8_6Rs4kCehVJykwK-4" value="&lt;font face=&quot;Times New Roman&quot;&gt;&lt;span style=&quot;font-size: 15px;&quot;&gt;Gives Player designated money amount&lt;/span&gt;&lt;/font&gt;" style="text;html=1;strokeColor=none;fillColor=none;align=center;verticalAlign=middle;whiteSpace=wrap;rounded=0;" parent="1" vertex="1">
          <mxGeometry x="438.5" y="440" width="184" height="60" as="geometry" />
        </mxCell>
        <mxCell id="wMls8_6Rs4kCehVJykwK-6" style="edgeStyle=orthogonalEdgeStyle;rounded=0;orthogonalLoop=1;jettySize=auto;html=1;" parent="1" source="wMls8_6Rs4kCehVJykwK-5" edge="1">
          <mxGeometry relative="1" as="geometry">
            <mxPoint x="260" y="690" as="targetPoint" />
          </mxGeometry>
        </mxCell>
        <mxCell id="wMls8_6Rs4kCehVJykwK-7" style="edgeStyle=orthogonalEdgeStyle;rounded=0;orthogonalLoop=1;jettySize=auto;html=1;exitX=0.5;exitY=1;exitDx=0;exitDy=0;" parent="1" source="wMls8_6Rs4kCehVJykwK-5" edge="1">
          <mxGeometry relative="1" as="geometry">
            <mxPoint x="400" y="690" as="targetPoint" />
          </mxGeometry>
        </mxCell>
        <mxCell id="wMls8_6Rs4kCehVJykwK-5" value="&lt;font face=&quot;Times New Roman&quot;&gt;&lt;span style=&quot;font-size: 15px;&quot;&gt;Runs them through path, checks for health and if they pass go.&lt;/span&gt;&lt;/font&gt;" style="text;html=1;strokeColor=none;fillColor=none;align=center;verticalAlign=middle;whiteSpace=wrap;rounded=0;" parent="1" vertex="1">
          <mxGeometry x="258" y="560" width="150" height="60" as="geometry" />
        </mxCell>
        <mxCell id="wMls8_6Rs4kCehVJykwK-8" value="" style="rounded=1;whiteSpace=wrap;html=1;" parent="1" vertex="1">
          <mxGeometry x="200" y="690" width="120" height="60" as="geometry" />
        </mxCell>
        <mxCell id="wMls8_6Rs4kCehVJykwK-23" style="edgeStyle=orthogonalEdgeStyle;rounded=0;orthogonalLoop=1;jettySize=auto;html=1;" parent="1" source="wMls8_6Rs4kCehVJykwK-9" edge="1">
          <mxGeometry relative="1" as="geometry">
            <mxPoint x="260" y="840" as="targetPoint" />
          </mxGeometry>
        </mxCell>
        <mxCell id="wMls8_6Rs4kCehVJykwK-9" value="&lt;font face=&quot;Times New Roman&quot;&gt;&lt;span style=&quot;font-size: 15px;&quot;&gt;If health = 0&lt;br&gt;destroy enemy&lt;br&gt;&lt;/span&gt;&lt;/font&gt;" style="text;html=1;strokeColor=none;fillColor=none;align=center;verticalAlign=middle;whiteSpace=wrap;rounded=0;" parent="1" vertex="1">
          <mxGeometry x="203.75" y="690" width="112.5" height="60" as="geometry" />
        </mxCell>
        <mxCell id="wMls8_6Rs4kCehVJykwK-10" value="" style="rounded=1;whiteSpace=wrap;html=1;" parent="1" vertex="1">
          <mxGeometry x="340" y="690" width="120" height="60" as="geometry" />
        </mxCell>
        <mxCell id="wMls8_6Rs4kCehVJykwK-19" style="edgeStyle=orthogonalEdgeStyle;rounded=0;orthogonalLoop=1;jettySize=auto;html=1;" parent="1" source="wMls8_6Rs4kCehVJykwK-11" edge="1">
          <mxGeometry relative="1" as="geometry">
            <mxPoint x="400" y="800" as="targetPoint" />
          </mxGeometry>
        </mxCell>
        <mxCell id="wMls8_6Rs4kCehVJykwK-11" value="&lt;font face=&quot;Times New Roman&quot;&gt;&lt;span style=&quot;font-size: 15px;&quot;&gt;If enemy pass go,&lt;br&gt;restore 50% of missing health&lt;br&gt;&lt;/span&gt;&lt;/font&gt;" style="text;html=1;strokeColor=none;fillColor=none;align=center;verticalAlign=middle;whiteSpace=wrap;rounded=0;" parent="1" vertex="1">
          <mxGeometry x="343.75" y="690" width="112.5" height="60" as="geometry" />
        </mxCell>
        <mxCell id="wMls8_6Rs4kCehVJykwK-16" value="" style="rounded=0;whiteSpace=wrap;html=1;" parent="1" vertex="1">
          <mxGeometry x="470.5" y="600" width="120" height="60" as="geometry" />
        </mxCell>
        <mxCell id="wMls8_6Rs4kCehVJykwK-18" style="edgeStyle=orthogonalEdgeStyle;rounded=0;orthogonalLoop=1;jettySize=auto;html=1;exitX=0.5;exitY=1;exitDx=0;exitDy=0;" parent="1" source="wMls8_6Rs4kCehVJykwK-17" edge="1">
          <mxGeometry relative="1" as="geometry">
            <mxPoint x="460" y="830" as="targetPoint" />
            <mxPoint x="529.8" y="700" as="sourcePoint" />
            <Array as="points">
              <mxPoint x="530" y="830" />
              <mxPoint x="460" y="830" />
            </Array>
          </mxGeometry>
        </mxCell>
        <mxCell id="wMls8_6Rs4kCehVJykwK-17" value="&lt;font face=&quot;Times New Roman&quot;&gt;&lt;span style=&quot;font-size: 15px;&quot;&gt;Builds and upgrades towers&lt;/span&gt;&lt;/font&gt;" style="text;html=1;strokeColor=none;fillColor=none;align=center;verticalAlign=middle;whiteSpace=wrap;rounded=0;" parent="1" vertex="1">
          <mxGeometry x="470.5" y="600" width="119.5" height="60" as="geometry" />
        </mxCell>
        <mxCell id="wMls8_6Rs4kCehVJykwK-20" value="" style="rounded=0;whiteSpace=wrap;html=1;" parent="1" vertex="1">
          <mxGeometry x="340" y="800" width="120" height="60" as="geometry" />
        </mxCell>
        <mxCell id="wMls8_6Rs4kCehVJykwK-22" style="edgeStyle=orthogonalEdgeStyle;rounded=0;orthogonalLoop=1;jettySize=auto;html=1;" parent="1" source="wMls8_6Rs4kCehVJykwK-21" edge="1">
          <mxGeometry relative="1" as="geometry">
            <mxPoint x="396" y="940" as="targetPoint" />
          </mxGeometry>
        </mxCell>
        <mxCell id="wMls8_6Rs4kCehVJykwK-21" value="&lt;font face=&quot;Times New Roman&quot;&gt;&lt;span style=&quot;font-size: 15px;&quot;&gt;If enemy passes go second time, subtract lives&lt;br&gt;&lt;/span&gt;&lt;/font&gt;" style="text;html=1;strokeColor=none;fillColor=none;align=center;verticalAlign=middle;whiteSpace=wrap;rounded=0;" parent="1" vertex="1">
          <mxGeometry x="340" y="800" width="112.5" height="60" as="geometry" />
        </mxCell>
        <mxCell id="wMls8_6Rs4kCehVJykwK-24" value="" style="rounded=0;whiteSpace=wrap;html=1;" parent="1" vertex="1">
          <mxGeometry x="200" y="840" width="120" height="60" as="geometry" />
        </mxCell>
        <mxCell id="wMls8_6Rs4kCehVJykwK-26" style="edgeStyle=orthogonalEdgeStyle;rounded=0;orthogonalLoop=1;jettySize=auto;html=1;entryX=0;entryY=0.5;entryDx=0;entryDy=0;" parent="1" source="wMls8_6Rs4kCehVJykwK-25" target="rAy8-Z3b183x5DeQ4CNt-8" edge="1">
          <mxGeometry relative="1" as="geometry">
            <mxPoint x="130" y="230" as="targetPoint" />
            <Array as="points">
              <mxPoint x="90" y="870" />
              <mxPoint x="90" y="310" />
            </Array>
          </mxGeometry>
        </mxCell>
        <mxCell id="wMls8_6Rs4kCehVJykwK-25" value="&lt;font face=&quot;Times New Roman&quot;&gt;&lt;span style=&quot;font-size: 15px;&quot;&gt;If all enemies defeated, run next round&lt;br&gt;&lt;/span&gt;&lt;/font&gt;" style="text;html=1;strokeColor=none;fillColor=none;align=center;verticalAlign=middle;whiteSpace=wrap;rounded=0;" parent="1" vertex="1">
          <mxGeometry x="200" y="840" width="112.5" height="60" as="geometry" />
        </mxCell>
        <mxCell id="wMls8_6Rs4kCehVJykwK-27" value="" style="rounded=0;whiteSpace=wrap;html=1;" parent="1" vertex="1">
          <mxGeometry x="336.25" y="940" width="120" height="60" as="geometry" />
        </mxCell>
        <mxCell id="wMls8_6Rs4kCehVJykwK-28" value="&lt;font style=&quot;font-size: 16px;&quot; face=&quot;Times New Roman&quot;&gt;Ends game&lt;/font&gt;" style="text;html=1;strokeColor=none;fillColor=none;align=center;verticalAlign=middle;whiteSpace=wrap;rounded=0;" parent="1" vertex="1">
          <mxGeometry x="336" y="940" width="124" height="60" as="geometry" />
        </mxCell>
      </root>
    </mxGraphModel>
  </diagram>
</mxfile>
